<?xml version="1.0" encoding="UTF-8"?>
<!-- Generator: visioncortex VTracer -->
<svg id="svg" version="1.1" xmlns="http://www.w3.org/2000/svg" style="display: block;" viewBox="0 0 447 447"><path d="M0 0 C1.62341057 -0.0049926 1.62341057 -0.0049926 3.27961731 -0.01008606 C5.55790791 -0.01512074 7.8362058 -0.01749546 10.11450195 -0.01733398 C13.55497735 -0.01951411 16.99512828 -0.0376899 20.43554688 -0.05664062 C36.2624568 -0.09878513 51.02635075 1.03921747 66.45703125 4.79296875 C68.0503125 5.1799292 68.0503125 5.1799292 69.67578125 5.57470703 C103.72223612 14.15210611 134.23767892 30.79309211 160.66015625 53.79296875 C162.47675135 55.37081135 164.34285081 56.89345912 166.25390625 58.35546875 C166.9603125 58.95359375 167.66671875 59.55171875 168.39453125 60.16796875 C168.39453125 60.82796875 168.39453125 61.48796875 168.39453125 62.16796875 C168.99265625 62.43609375 169.59078125 62.70421875 170.20703125 62.98046875 C172.39300979 64.16714281 173.80785719 65.26395988 175.39453125 67.16796875 C175.39453125 67.82796875 175.39453125 68.48796875 175.39453125 69.16796875 C176.05453125 69.16796875 176.71453125 69.16796875 177.39453125 69.16796875 C178.81159627 70.71685377 180.15262621 72.33558409 181.45703125 73.98046875 C184.97898308 78.40664992 184.97898308 78.40664992 188.6015625 82.75 C205.80566577 102.92994816 219.0331012 127.8422726 226.765625 153.13867188 C227.31016505 154.89574365 227.9099606 156.63551065 228.51953125 158.37109375 C229.62820359 161.61049574 230.52899405 164.85469237 231.39453125 168.16796875 C231.60883789 168.93963379 231.82314453 169.71129883 232.04394531 170.50634766 C238.33843187 193.98154334 236.39453125 215.11225608 236.39453125 240.16796875 C89.21453125 240.16796875 -57.96546875 240.16796875 -209.60546875 240.16796875 C-209.60546875 191.4024701 -209.60546875 191.4024701 -206.60546875 178.16796875 C-206.40679199 177.26594727 -206.20811523 176.36392578 -206.00341797 175.43457031 C-201.45699594 155.32133547 -194.39501719 136.30685373 -184.60546875 118.16796875 C-183.991875 117.01296875 -183.37828125 115.85796875 -182.74609375 114.66796875 C-175.26256077 101.06154515 -166.16467084 88.60205211 -155.98046875 76.90234375 C-154.40262615 75.08574865 -152.87997838 73.21964919 -151.41796875 71.30859375 C-150.81984375 70.6021875 -150.22171875 69.89578125 -149.60546875 69.16796875 C-148.94546875 69.16796875 -148.28546875 69.16796875 -147.60546875 69.16796875 C-147.33734375 68.56984375 -147.06921875 67.97171875 -146.79296875 67.35546875 C-145.60629469 65.16949021 -144.50947762 63.75464281 -142.60546875 62.16796875 C-141.94546875 62.16796875 -141.28546875 62.16796875 -140.60546875 62.16796875 C-140.60546875 61.50796875 -140.60546875 60.84796875 -140.60546875 60.16796875 C-138.18546391 57.58559937 -135.32894563 55.42052744 -132.60546875 53.16796875 C-132.08500977 52.73129883 -131.56455078 52.29462891 -131.02832031 51.84472656 C-121.3821429 43.77570193 -111.2984045 36.77371734 -100.60546875 30.16796875 C-99.60257812 29.53246094 -98.5996875 28.89695312 -97.56640625 28.2421875 C-68.84171582 10.64325745 -33.67514824 0.03685192 0 0 Z " transform="translate(209.60546875,-0.16796875)" style="fill: #ACACAC;"/><path d="M0 0 C144.54 0 289.08 0 438 0 C438 7.88435374 438 7.88435374 437.08203125 11.34765625 C436.78184082 12.49355225 436.78184082 12.49355225 436.47558594 13.66259766 C436.1473584 14.85054932 436.1473584 14.85054932 435.8125 16.0625 C435.58981445 16.8879834 435.36712891 17.7134668 435.13769531 18.56396484 C429.69616005 38.30383995 429.69616005 38.30383995 427 41 C424.79517517 41.09809273 422.58713173 41.12371119 420.380126 41.12304783 C419.32485005 41.1247786 419.32485005 41.1247786 418.2482554 41.12654433 C415.86107282 41.12921775 413.47395598 41.12468292 411.08677673 41.12025452 C409.36999656 41.12069007 407.65321646 41.12156468 405.93643671 41.12284368 C401.19563295 41.12509175 396.45485156 41.12106312 391.71405065 41.11606562 C386.61040773 41.11176575 381.50676617 41.11320721 376.40312195 41.1139679 C367.55300025 41.11449343 358.70288589 41.1113436 349.85276604 41.10573006 C337.05682023 41.09761898 324.26087799 41.09500024 311.46492989 41.09374207 C290.70667976 41.09155093 269.94843355 41.08488917 249.19018555 41.07543945 C229.01993835 41.06626693 208.84969222 41.05918532 188.67944336 41.05493164 C186.8159522 41.05453756 186.8159522 41.05453756 184.91481476 41.05413551 C178.68271176 41.05283052 172.45060875 41.0515668 166.21850574 41.05032361 C114.47900112 41.03994907 62.73950075 41.02232907 11 41 C10.03628106 38.6399928 9.07729511 36.2782371 8.12084961 33.9152832 C7.85087914 33.25552742 7.58090866 32.59577164 7.30275726 31.91602325 C4.83508901 25.80129426 3.08903733 19.60059382 1.5625 13.1875 C1.29501953 12.12724609 1.02753906 11.06699219 0.75195312 9.97460938 C-1.13404923 2.26809846 -1.13404923 2.26809846 0 0 Z " transform="translate(4,266)" style="fill: #ACACAC;"/><path d="M0 0 C127.38 0 254.76 0 386 0 C387 4 387 4 385.296875 7.3984375 C384.4632956 8.73368321 383.61318072 10.05869655 382.75 11.375 C382.29979492 12.0774585 381.84958984 12.77991699 381.38574219 13.50366211 C376.69736171 20.69051965 371.4568232 27.38670721 366 34 C365.35417969 34.78890625 364.70835937 35.5778125 364.04296875 36.390625 C360.33049738 40.83475131 360.33049738 40.83475131 358 42 C356.20778369 42.09879342 354.41186419 42.13282455 352.61693192 42.13701439 C351.46712947 42.14208893 350.31732703 42.14716347 349.13268209 42.15239179 C347.22154028 42.15313843 347.22154028 42.15313843 345.27178955 42.15390015 C343.91315419 42.15791346 342.55452003 42.16235146 341.19588733 42.1671797 C337.44947121 42.17916567 333.70306798 42.18479832 329.95663643 42.18936086 C325.92106401 42.19530928 321.88550707 42.20692099 317.84994507 42.21765137 C308.097613 42.24219246 298.34527579 42.25680483 288.59292233 42.26971143 C285.83958123 42.27342206 283.08624064 42.2773954 280.33290005 42.2814641 C263.24415145 42.30669881 246.15540207 42.32875736 229.06663895 42.34119225 C225.10692593 42.34412206 221.14721295 42.34708371 217.1875 42.35009766 C216.20330199 42.35084371 215.21910398 42.35158976 214.20508179 42.35235842 C198.25628708 42.36501611 182.30760374 42.39824373 166.35886112 42.43989949 C149.99392848 42.48229278 133.62905292 42.50588425 117.2640655 42.51111281 C108.07193578 42.51452985 98.87998012 42.52631938 89.68790436 42.55921555 C81.86053195 42.58718145 74.03336927 42.59823066 66.20595077 42.58702008 C62.21120029 42.58182453 58.21688927 42.5847777 54.2222023 42.60948563 C50.56528448 42.63191588 46.90912335 42.63128775 43.25219283 42.61228175 C41.30218944 42.60814192 39.35218194 42.62867348 37.40229154 42.65006864 C27.94001643 42.56384925 27.94001643 42.56384925 24.27997971 39.57914162 C23.15138975 38.30246652 23.15138975 38.30246652 22 37 C21.4337793 36.3814917 20.86755859 35.7629834 20.28417969 35.12573242 C19.83461914 34.54154541 19.38505859 33.9573584 18.921875 33.35546875 C18.40512207 32.68604248 17.88836914 32.01661621 17.35595703 31.3269043 C16.82599121 30.62090088 16.29602539 29.91489746 15.75 29.1875 C15.19296387 28.44991455 14.63592773 27.7123291 14.06201172 26.95239258 C10.23486396 21.81474989 6.5858745 16.57867036 3.125 11.1875 C2.69026367 10.52451904 2.25552734 9.86153809 1.80761719 9.1784668 C0.6328125 7.29296875 0.6328125 7.29296875 -1 4 C-0.67 2.68 -0.34 1.36 0 0 Z " transform="translate(30,332)" style="fill: #AFAFAF;"/><path d="M0 0 C90.09 0 180.18 0 273 0 C273 0.99 273 1.98 273 3 C271.43725586 4.43530273 271.43725586 4.43530273 269.21484375 5.93359375 C268.3856543 6.49425537 267.55646484 7.05491699 266.70214844 7.63256836 C265.78981445 8.2281958 264.87748047 8.82382324 263.9375 9.4375 C262.9980957 10.05568604 262.05869141 10.67387207 261.09082031 11.31079102 C228.47266593 32.3778056 190.89031923 46.85275948 151.73046875 47.2734375 C150.66438889 47.28605621 149.59830902 47.29867493 148.49992371 47.31167603 C104.05103499 47.73600427 104.05103499 47.73600427 83 42 C81.89140625 41.70528809 80.7828125 41.41057617 79.640625 41.10693359 C65.5533644 37.27636202 52.07384037 32.49440601 39 26 C38.2260791 25.62117676 37.4521582 25.24235352 36.65478516 24.85205078 C25.0816853 19.14383968 14.42596752 12.59515937 4 5 C2.79150391 4.16275391 2.79150391 4.16275391 1.55859375 3.30859375 C1.04425781 2.87675781 0.52992187 2.44492187 0 2 C0 1.34 0 0.68 0 0 Z " transform="translate(86,399)" style="fill: #ADADAD;"/></svg>